<?xml version="1.0" encoding="utf-8"?>
<!-- Generator: Adobe Illustrator 25.4.1, SVG Export Plug-In . SVG Version: 6.00 Build 0)  -->
<svg version="1.1" id="Layer_1" xmlns="http://www.w3.org/2000/svg" xmlns:xlink="http://www.w3.org/1999/xlink" x="0px" y="0px"
	 viewBox="0 0 453.2 415" style="enable-background:new 0 0 453.2 415;" xml:space="preserve">
<g>
	<path d="M433.3,33.5h-13.6V19.9c0-5.3-2.1-10.3-5.8-14.1c-3.7-3.7-8.8-5.8-14.1-5.8H271.5c-9.1,0-17.8,3.6-24.2,10l-20.7,20.6
		L205.9,10C199.5,3.6,190.8,0,181.7,0H53.4C48.1,0,43,2.1,39.3,5.8c-3.7,3.7-5.8,8.8-5.8,14.1v13.6H19.9c-5.3,0-10.3,2.1-14.1,5.8
		C2.1,43,0,48.1,0,53.4v291.5c0,5.3,2.1,10.3,5.8,14.1c3.7,3.7,8.8,5.8,14.1,5.8h153.7l48.2,48.2c1.3,1.3,3,2,4.7,2
		c1.8,0,3.5-0.7,4.7-2l48.2-48.2h153.7c5.3,0,10.3-2.1,14.1-5.8c3.7-3.7,5.8-8.8,5.8-14.1V53.4c0-5.3-2.1-10.3-5.8-14.1
		C443.6,35.6,438.6,33.5,433.3,33.5L433.3,33.5z M256.7,19.5c3.9-3.9,9.2-6.1,14.8-6.1h128.4c3.6,0,6.5,2.9,6.5,6.5v291.5
		c0,3.6-2.9,6.5-6.5,6.5H271.5c-9.1,0-17.8,3.6-24.2,10l-14.1,14.1c0.1-0.2,0.1-0.5,0.2-0.7V42.9L256.7,19.5z M226.6,348.1
		c0.2,0,0.5-0.1,0.7-0.2l-0.7,0.7l-0.7-0.7C226.1,348,226.4,348,226.6,348.1z M46.9,19.9c0-3.6,2.9-6.5,6.5-6.5h128.4
		c5.5,0,10.9,2.2,14.8,6.1l23.4,23.4v298.4c0,0.2,0.1,0.5,0.2,0.7L205.9,328c-6.4-6.4-15.1-10.1-24.2-10H53.4
		c-3.6,0-6.5-2.9-6.5-6.5L46.9,19.9z M439.8,344.9c0,3.6-2.9,6.5-6.5,6.5H276.8c-1.8,0-3.5,0.7-4.7,2l-45.5,45.5l-45.5-45.5
		c-1.3-1.3-3-2-4.7-2H19.9c-3.6,0-6.5-2.9-6.5-6.5V53.4c0-3.6,2.9-6.5,6.5-6.5h13.6v264.6c0,5.3,2.1,10.3,5.8,14.1
		c3.7,3.7,8.8,5.8,14.1,5.8h128.4c5.5,0,10.9,2.2,14.8,6.1l25.4,25.4c1.3,1.3,3,2,4.7,2c1.8,0,3.5-0.7,4.7-2l25.4-25.4
		c3.9-3.9,9.2-6.1,14.8-6.1h128.4c5.3,0,10.3-2.1,14.1-5.8c3.7-3.7,5.8-8.8,5.8-14.1V46.9h13.6c3.6,0,6.5,2.9,6.5,6.5L439.8,344.9z"
		/>
	<path d="M73.6,130.5h119.5c1.8,0,3.5-0.7,4.7-2c1.3-1.3,2-3,2-4.7V73.6c0-1.8-0.7-3.5-2-4.7c-1.3-1.3-3-2-4.7-2H73.6
		c-3.7,0-6.7,3-6.7,6.7v50.2c0,1.8,0.7,3.5,2,4.7C70.2,129.8,71.9,130.5,73.6,130.5z M80.3,80.3h106.1v36.8H80.3V80.3z"/>
	<path d="M73.6,164h119.5c3.7,0,6.7-3,6.7-6.7c0-3.7-3-6.7-6.7-6.7H73.6c-3.7,0-6.7,3-6.7,6.7C66.9,161,69.9,164,73.6,164z"/>
	<path d="M73.6,197.5h119.5c3.7,0,6.7-3,6.7-6.7c0-3.7-3-6.7-6.7-6.7H73.6c-3.7,0-6.7,3-6.7,6.7C66.9,194.5,69.9,197.5,73.6,197.5z"
		/>
	<path d="M73.6,230.9h119.5c3.7,0,6.7-3,6.7-6.7c0-3.7-3-6.7-6.7-6.7H73.6c-3.7,0-6.7,3-6.7,6.7C66.9,227.9,69.9,230.9,73.6,230.9z"
		/>
	<path d="M73.6,264.4h119.5c3.7,0,6.7-3,6.7-6.7c0-3.7-3-6.7-6.7-6.7H73.6c-3.7,0-6.7,3-6.7,6.7C66.9,261.4,69.9,264.4,73.6,264.4z"
		/>
	<path d="M260.1,264.4h119.5c1.8,0,3.5-0.7,4.7-2c1.3-1.3,2-3,2-4.7v-50.2c0-1.8-0.7-3.5-2-4.7c-1.3-1.3-3-2-4.7-2H260.1
		c-3.7,0-6.7,3-6.7,6.7v50.2C253.4,261.4,256.4,264.4,260.1,264.4z M266.8,214.2h106.1V251H266.8V214.2z"/>
	<path d="M260.1,80.3h119.5c3.7,0,6.7-3,6.7-6.7c0-3.7-3-6.7-6.7-6.7H260.1c-3.7,0-6.7,3-6.7,6.7C253.4,77.3,256.4,80.3,260.1,80.3z
		"/>
	<path d="M260.1,113.8h119.5c3.7,0,6.7-3,6.7-6.7c0-3.7-3-6.7-6.7-6.7H260.1c-3.7,0-6.7,3-6.7,6.7
		C253.4,110.8,256.4,113.8,260.1,113.8z"/>
	<path d="M260.1,147.3h119.5c3.7,0,6.7-3,6.7-6.7s-3-6.7-6.7-6.7H260.1c-3.7,0-6.7,3-6.7,6.7S256.4,147.3,260.1,147.3z"/>
	<path d="M260.1,180.7h119.5c3.7,0,6.7-3,6.7-6.7s-3-6.7-6.7-6.7H260.1c-3.7,0-6.7,3-6.7,6.7S256.4,180.7,260.1,180.7z"/>
</g>
</svg>
