<?xml version="1.0" encoding="utf-8"?>
<!-- Generator: Adobe Illustrator 25.4.1, SVG Export Plug-In . SVG Version: 6.00 Build 0)  -->
<svg version="1.1" id="Layer_1" xmlns="http://www.w3.org/2000/svg" xmlns:xlink="http://www.w3.org/1999/xlink" x="0px" y="0px"
	 viewBox="0 0 453.2 415" style="enable-background:new 0 0 453.2 415;" xml:space="preserve">
<style type="text/css">
	.st0{fill:#B91C1C;}
</style>
<path class="st0" d="M382.9,117l-126-106l0,0C248.4,3.8,238,0,227.3,0s-21.1,3.8-29.6,11l-126,106L6.9,171.4l0,0
	c-3.7,2.7-6.2,7-6.9,11.8s0.5,9.7,3.1,13.6c2.8,3.8,6.8,6.4,11.3,6.8c4.4,0.5,8.9-1.1,12.2-4.3l38.7-31.6V362
	c0,14,5.1,27.6,14.3,37.5c9.1,9.9,21.5,15.5,34.3,15.5h226.7c12.9,0,25.3-5.6,34.3-15.5c9.1-9.9,14.3-23.4,14.3-37.5V167.7
	l38.7,32.5c4.6,3.4,10.5,4,15.5,1.6s8.7-7.5,9.5-13.5s-1.1-12-5.4-16.1L382.9,117z M356.8,362c0,4.6-1.7,9.2-4.7,12.5
	s-7.1,5.1-11.5,5.1H113.9c-4.3,0-8.4-1.8-11.5-5.1s-4.7-7.8-4.7-12.5V139.6L217.4,39.3l0,0c2.9-2.4,6.3-3.6,9.9-3.6
	c3.6,0,7,1.3,9.9,3.6l119.7,100.3L356.8,362L356.8,362z"/>
</svg>
