<svg id="Layer_1" data-name="Layer 1" xmlns="http://www.w3.org/2000/svg" viewBox="0 0 424.9 504"><defs><style>.cls-1{fill:#d4af37;}</style></defs><path class="cls-1" d="M536.28,579.82l-339.95-340A8,8,0,0,1,202,226.21H209a12,12,0,0,1,8.49,3.51L548.8,561a8,8,0,0,0,13.66-5.66V536.07a12,12,0,0,0-3.52-8.48L271.22,239.86a8,8,0,0,1,5.66-13.66h7.05a12,12,0,0,1,8.49,3.52L548.79,486.1a8,8,0,0,0,13.66-5.66V461.16a12,12,0,0,0-3.51-8.48L446.69,340.41,558.94,228.17a12,12,0,0,0,3.51-8.49V200.4a8,8,0,0,0-13.66-5.65L424.9,318.64,409.23,303,558.94,153.27a12,12,0,0,0,3.51-8.49V125.51a8,8,0,0,0-13.65-5.65L387.45,281.2l-15.67-15.67,162.4-162.39a8,8,0,0,0-5.66-13.66h-383a8,8,0,0,0-8,8v14.8a8,8,0,0,0,8,8H454.15a8,8,0,0,1,5.66,13.66l-5,5a12,12,0,0,1-8.49,3.52H145.56a8,8,0,0,0-8,8v14.8a8,8,0,0,0,8,8H401.18a8,8,0,0,1,5.66,13.65l-5,5a12,12,0,0,1-8.49,3.51H145.56a8,8,0,0,0-8,8v21.25a1.55,1.55,0,0,0,1.55,1.56h0L247.66,334.78a8,8,0,0,1,0,11.31L141.07,452.69a12,12,0,0,0-3.51,8.49v18.38a8,8,0,0,0,8,8H395.47a12,12,0,0,1,8.48,3.51l5,5a8,8,0,0,1-5.66,13.66H145.56a8,8,0,0,0-8,8v14.8a8,8,0,0,0,8,8H448.44a12,12,0,0,1,8.49,3.51l5,5a8,8,0,0,1-5.66,13.66H145.56a8,8,0,0,0-8,8v14.79a8,8,0,0,0,8,8H530.63A8,8,0,0,0,536.28,579.82Zm-188.4-338.2-10.29-10.29a3,3,0,0,1,2.12-5.12h20.58a3,3,0,0,1,2.12,5.12l-10.29,10.29A3,3,0,0,1,347.88,241.62ZM322.55,421l-32.24,32.25a12,12,0,0,1-8.49,3.51h-7.06a8,8,0,0,1-5.66-13.65l37.79-37.78a8,8,0,0,1,11.31,0l4.36,4.36A8,8,0,0,1,322.55,421Zm-41.79-53.12,4.36,4.36a8,8,0,0,1,0,11.31l-69.71,69.7a12,12,0,0,1-8.49,3.51h-7a8,8,0,0,1-5.65-13.65l75.23-75.23A8,8,0,0,1,280.76,367.86Zm54.73,83.76,12.4-12.39a3,3,0,0,1,4.24,0l12.39,12.39a3,3,0,0,1-2.12,5.12H337.61A3,3,0,0,1,335.49,451.62Z" transform="translate(-137.56 -89.48)"/></svg>