<?xml version="1.0" encoding="utf-8"?>
<!-- Generator: Adobe Illustrator 25.4.1, SVG Export Plug-In . SVG Version: 6.00 Build 0)  -->
<svg version="1.1" id="Layer_1" xmlns="http://www.w3.org/2000/svg" xmlns:xlink="http://www.w3.org/1999/xlink" x="0px" y="0px"
	 viewBox="0 0 453.2 154.8" style="enable-background:new 0 0 453.2 154.8;" xml:space="preserve">
<style type="text/css">
	.st0{fill:#B91C1C;}
</style>
<g>
	<path class="st0" d="M7.6,24.2C12.7,32.3,19,42.3,32,42.3c12.9,0,19.3-10,24.4-18.1c5-7.8,8.3-12.6,14.5-12.6s9.6,4.8,14.5,12.6
		c5.1,8,11.4,18.1,24.4,18.1s19.3-10,24.4-18.1c5-7.8,8.3-12.6,14.5-12.6s9.6,4.8,14.5,12.6c5.1,8,11.4,18.1,24.4,18.1
		s19.3-10,24.4-18.1c5-7.8,8.3-12.6,14.5-12.6s9.5,4.8,14.5,12.6c5.1,8.1,11.4,18.1,24.4,18.1c12.9,0,19.3-10,24.4-18.1
		c5-7.8,8.3-12.6,14.5-12.6s9.6,4.8,14.5,12.6c5.1,8,11.4,18.1,24.4,18.1s19.3-10,24.4-18.1c5-7.8,8.3-12.6,14.5-12.6
		s9.6,4.8,14.5,12.6c5.1,8.1,11.4,18.1,24.4,18.1c12.9,0,19.3-10,24.4-18.1c5-7.8,7.8-15.2,7.8-18.4S450.6,0,447.4,0
		c-7.4,0-6.8,10-11.9,18.1c-5,7.8-8.3,12.6-14.5,12.6s-9.6-4.8-14.5-12.6C401.4,10,395.1,0,382.1,0c-12.9,0-19.3,10-24.4,18.1
		c-5,7.8-8.3,12.6-14.5,12.6s-9.6-4.8-14.5-12.6c-5.1-8-11.4-18.1-24.4-18.1c-12.9,0-19.3,10-24.4,18.1c-4.9,7.8-8.3,12.6-14.5,12.6
		s-9.6-4.8-14.5-12.6C245.8,10,239.5,0,226.5,0c-12.9,0-19.3,10-24.4,18.1c-5,7.8-8.3,12.6-14.5,12.6S178,25.9,173.1,18
		c-5.1-8-11.4-18.1-24.4-18.1c-12.9,0-19.3,10-24.4,18.1c-5,7.8-8.3,12.6-14.5,12.6s-9.6-4.8-14.5-12.6C90.2,9.9,83.9-0.1,70.9-0.1
		C58-0.1,51.6,9.9,46.5,18c-5,7.8-8.3,12.6-14.5,12.6S22.4,25.8,17.5,18C12.4,9.9,12.4,2.9,5.8,2.9C2.6,2.9,0,5.5,0,8.7
		C-0.1,12,2.6,16.4,7.6,24.2z"/>
	<path class="st0" d="M7.6,80.4C12.7,88.5,19,98.5,32,98.5c12.9,0,19.3-10,24.4-18.1c5-7.8,8.3-12.6,14.5-12.6s9.6,4.8,14.5,12.6
		c5.1,8,11.4,18.1,24.4,18.1s19.3-10,24.4-18.1c5-7.8,8.3-12.6,14.5-12.6s9.6,4.8,14.5,12.6c5.1,8,11.4,18.1,24.4,18.1
		s19.3-10,24.4-18.1c5-7.8,8.3-12.6,14.5-12.6s9.5,4.8,14.5,12.6c5.1,8.1,11.4,18.1,24.4,18.1c12.9,0,19.3-10,24.4-18.1
		c5-7.8,8.3-12.6,14.5-12.6s9.6,4.8,14.5,12.6c5.1,8,11.4,18.1,24.4,18.1s19.3-10,24.4-18.1c5-7.8,8.3-12.6,14.5-12.6
		s9.6,4.8,14.5,12.6c5.1,8.1,11.4,18.1,24.4,18.1c12.9,0,19.3-10,24.4-18.1c5-7.8,7.8-15.2,7.8-18.4s-2.6-5.8-5.8-5.8
		c-7.4,0-6.8,10-11.9,18.1c-5,7.8-8.3,12.6-14.5,12.6s-9.6-4.8-14.5-12.6c-5.1-8.1-11.4-18.1-24.4-18.1c-12.9,0-19.3,10-24.4,18.1
		c-5,7.8-8.3,12.6-14.5,12.6s-9.6-4.8-14.5-12.6c-5.1-8-11.4-18.1-24.4-18.1c-12.9,0-19.3,10-24.4,18.1c-4.9,7.8-8.3,12.6-14.5,12.6
		s-9.6-4.8-14.5-12.6c-5.1-8.1-11.4-18.1-24.4-18.1c-12.9,0-19.3,10-24.4,18.1c-5,7.8-8.3,12.6-14.5,12.6s-9.6-4.8-14.5-12.7
		c-5.1-8-11.4-18.1-24.4-18.1c-12.9,0-19.3,10-24.4,18.1c-5,7.8-8.3,12.6-14.5,12.6s-9.6-4.8-14.5-12.6
		c-5.1-8.1-11.4-18.1-24.4-18.1c-12.9,0-19.3,10-24.4,18.1c-5,7.8-8.3,12.6-14.5,12.6S22.4,82,17.5,74.2
		c-5.1-8.1-5.1-15.1-11.7-15.1c-3.2,0-5.8,2.6-5.8,5.8C-0.1,68.2,2.6,72.6,7.6,80.4z"/>
	<path class="st0" d="M7.6,136.7c5.1,8.1,11.4,18.1,24.4,18.1c12.9,0,19.3-10,24.4-18.1c5-7.8,8.3-12.6,14.5-12.6s9.6,4.8,14.5,12.6
		c5.1,8,11.4,18.1,24.4,18.1s19.3-10,24.4-18.1c5-7.8,8.3-12.6,14.5-12.6s9.6,4.8,14.5,12.6c5.1,8,11.4,18.1,24.4,18.1
		s19.3-10,24.4-18.1c5-7.8,8.3-12.6,14.5-12.6s9.5,4.8,14.5,12.6c5.1,8.1,11.4,18.1,24.4,18.1c12.9,0,19.3-10,24.4-18.1
		c5-7.8,8.3-12.6,14.5-12.6s9.6,4.8,14.5,12.6c5.1,8,11.4,18.1,24.4,18.1s19.3-10,24.4-18.1c5-7.8,8.3-12.6,14.5-12.6
		s9.6,4.8,14.5,12.6c5.1,8.1,11.4,18.1,24.4,18.1c12.9,0,19.3-10,24.4-18.1c5-7.8,7.8-15.2,7.8-18.4s-2.6-5.8-5.8-5.8
		c-7.4,0-6.8,10-11.9,18.1c-5,7.8-8.3,12.6-14.5,12.6s-9.6-4.8-14.5-12.6c-5.1-8.1-11.4-18.1-24.4-18.1c-12.9,0-19.3,10-24.4,18.1
		c-5,7.8-8.3,12.6-14.5,12.6s-9.6-4.8-14.5-12.6c-5.1-8-11.4-18.1-24.4-18.1c-12.9,0-19.3,10-24.4,18.1c-4.9,7.8-8.3,12.6-14.5,12.6
		s-9.6-4.8-14.5-12.6c-5.1-8.1-11.4-18.1-24.4-18.1c-12.9,0-19.3,10-24.4,18.1c-5,7.8-8.3,12.6-14.5,12.6s-9.6-4.8-14.5-12.7
		c-5.1-8-11.4-18.1-24.4-18.1c-12.9,0-19.3,10-24.4,18.1c-5,7.8-8.3,12.6-14.5,12.6s-9.6-4.8-14.5-12.6
		c-5.1-8.1-11.4-18.1-24.4-18.1c-12.9,0-19.3,10-24.4,18.1c-5,7.8-8.3,12.6-14.5,12.6s-9.6-4.8-14.5-12.6
		c-5.1-8.1-5.1-15.1-11.7-15.1c-3.2,0-5.8,2.6-5.8,5.8C-0.1,124.5,2.6,128.9,7.6,136.7z"/>
</g>
</svg>
